<?xml version="1.0" encoding="UTF-8" standalone="no"?>
<!DOCTYPE svg PUBLIC "-//W3C//DTD SVG 1.1//EN" "http://www.w3.org/Graphics/SVG/1.1/DTD/svg11.dtd">
<svg width="100%" height="100%" viewBox="0 0 1539 241" version="1.1" xmlns="http://www.w3.org/2000/svg" xmlns:xlink="http://www.w3.org/1999/xlink" xml:space="preserve" xmlns:serif="http://www.serif.com/" style="fill-rule:evenodd;clip-rule:evenodd;stroke-linejoin:round;stroke-miterlimit:1.41421;">
    <g id="Artboard1" transform="matrix(0.894545,0,0,1,327.887,-149.879)">
        <rect x="-366.54" y="149.879" width="1720.2" height="240.642" style="fill:none;"/>
        <g transform="matrix(0.381573,0,0,0.341334,-663.346,-106.293)">
            <path d="M1033.32,1268.58L1033.32,912.363L960.204,864.867C967.703,876.116 969.578,885.49 969.578,902.364L969.578,1268.58C969.578,1307.32 947.08,1313.57 922.707,1313.57L922.707,1321.7L1080.82,1321.7L1080.82,1313.57C1056.44,1313.57 1033.32,1307.32 1033.32,1268.58Z" style="fill:rgb(68,68,68);fill-rule:nonzero;"/>
            <path d="M1212.68,872.991C1253.92,872.991 1268.3,889.865 1268.3,919.237L1268.3,1265.45C1268.3,1301.07 1243.3,1313.57 1212.05,1313.57L1212.05,1321.7L1332.67,1321.7L1332.67,864.867L1212.68,864.867L1212.68,872.991ZM1400.16,864.867L1400.16,870.492C1446.4,884.865 1547.02,933.61 1547.02,1092.35C1547.02,1251.08 1442.66,1302.32 1400.16,1316.07L1400.16,1321.07C1456.4,1319.82 1626.39,1298.57 1626.39,1087.97C1626.39,895.489 1461.4,868.617 1400.16,864.867Z" style="fill:rgb(68,68,68);fill-rule:nonzero;"/>
            <path d="M1862.61,917.987C1862.61,879.241 1885.11,872.991 1910.11,872.991L1910.11,864.867L1751.38,864.867L1751.38,872.991C1775.75,872.991 1798.87,879.241 1798.87,917.987L1798.87,1268.58C1798.87,1307.32 1775.75,1313.57 1751.38,1313.57L1751.38,1321.7L1910.11,1321.7L1910.11,1313.57C1885.11,1313.57 1862.61,1307.32 1862.61,1268.58L1862.61,917.987Z" style="fill:rgb(68,68,68);fill-rule:nonzero;"/>
            <path d="M2465.05,1087.35C2465.05,1216.71 2366.31,1321.7 2253.2,1321.7C2140.09,1321.7 2041.35,1216.71 2041.35,1087.35C2041.35,957.983 2140.09,852.993 2253.2,852.993C2366.31,852.993 2465.05,957.983 2465.05,1087.35ZM2386.31,1084.22C2386.31,961.733 2334.44,861.118 2253.2,861.118C2172.58,861.118 2120.09,961.733 2120.09,1084.22C2120.09,1206.71 2172.58,1313.57 2253.2,1313.57C2334.44,1313.57 2386.31,1206.71 2386.31,1084.22Z" style="fill:rgb(68,68,68);fill-rule:nonzero;"/>
            <path d="M2991.88,864.867L2618.16,864.867L2608.79,1000.48L2622.54,1000.48C2631.29,942.36 2655.66,872.991 2732.53,872.991L2772.52,872.991L2772.52,1274.2L2846.89,1321.7C2839.39,1310.45 2837.52,1301.07 2837.52,1284.2L2837.52,872.991L2873.76,872.991C2950.63,872.991 2981.25,942.984 2988.13,1000.48L3001.25,1000.48L2991.88,864.867Z" style="fill:rgb(68,68,68);fill-rule:nonzero;"/>
            <path d="M3107.49,872.991C3126.86,872.991 3156.24,880.491 3156.24,919.237L3156.24,1267.95C3156.24,1306.7 3126.86,1313.57 3107.49,1313.57L3107.49,1321.7L3268.1,1321.7L3268.1,1313.57C3243.73,1313.57 3219.98,1307.95 3219.98,1268.58L3219.98,918.612C3219.98,878.616 3243.73,872.991 3268.1,872.991L3268.1,864.867L3107.49,864.867L3107.49,872.991ZM3492.45,1267.95L3492.45,918.612C3492.45,879.866 3520.57,872.991 3539.32,872.991L3539.32,864.867L3379.96,864.867L3379.96,872.991C3404.34,872.991 3428.71,878.616 3428.71,917.987L3428.71,1039.22C3428.71,1056.72 3422.46,1068.6 3413.09,1075.47C3394.96,1088.6 3364.34,1095.47 3340.59,1098.59L3340.59,1102.97C3363.72,1105.47 3394.34,1111.72 3413.09,1124.84C3422.46,1131.72 3428.71,1144.84 3428.71,1161.71L3428.71,1268.58C3428.71,1307.95 3405.59,1313.57 3381.21,1313.57L3381.21,1321.7L3540.57,1321.7L3540.57,1313.57C3521.82,1313.57 3492.45,1306.7 3492.45,1267.95Z" style="fill:rgb(68,68,68);fill-rule:nonzero;"/>
            <path d="M3991.15,1193.59C3986.15,1256.08 3947.41,1313.57 3861.17,1313.57L3820.55,1313.57C3819.3,1313.57 3773.67,1311.7 3773.67,1270.45L3773.67,1096.09L3800.55,1096.09C3852.42,1097.97 3886.79,1134.21 3886.79,1175.46L3896.79,1175.46L3896.79,1006.73L3886.79,1006.73C3886.79,1022.35 3881.79,1039.85 3873.04,1052.97L3756.8,872.991L3849.92,872.991C3918.66,872.991 3966.78,914.862 3979.28,979.856L3988.65,979.856L3980.53,864.867L3653.06,864.867L3653.06,872.991C3680.56,872.991 3697.43,897.989 3697.43,897.989L3820.55,1084.85C3814.92,1086.1 3808.05,1087.35 3801.8,1087.35L3708.68,1087.35L3708.68,1268.58C3708.68,1304.82 3676.18,1313.57 3653.06,1313.57L3653.06,1321.7L3992.4,1321.7L4001.15,1193.59L3991.15,1193.59Z" style="fill:rgb(68,68,68);fill-rule:nonzero;"/>
            <path d="M4374.86,1109.84C4343.62,1079.85 4306.75,1060.47 4269.25,1039.85C4236.13,1022.35 4203.63,998.604 4193.01,961.733C4183.63,931.111 4191.13,889.24 4219.88,873.616C4264.88,850.494 4380.49,879.866 4388.61,998.604L4397.36,998.604L4406.74,887.365C4406.74,887.365 4297.37,834.245 4203.63,867.992C4166.14,881.741 4133.64,917.362 4132.39,956.733C4130.51,1008.6 4163.01,1057.97 4209.26,1084.22C4258,1111.09 4316.74,1139.84 4348.62,1186.71C4376.74,1228.58 4361.12,1301.7 4311.75,1318.57C4264.88,1334.2 4160.51,1299.2 4156.14,1189.21L4147.39,1189.21L4137.39,1300.45C4137.39,1300.45 4280.5,1365.44 4379.86,1306.07C4434.86,1273.58 4441.11,1172.96 4374.86,1109.84Z" style="fill:rgb(68,68,68);fill-rule:nonzero;"/>
            <path d="M4652.34,1268.58L4652.34,912.363L4579.22,864.867C4586.72,876.116 4588.59,885.49 4588.59,902.364L4588.59,1268.58C4588.59,1307.32 4566.1,1313.57 4541.72,1313.57L4541.72,1321.7L4699.83,1321.7L4699.83,1313.57C4675.46,1313.57 4652.34,1307.32 4652.34,1268.58Z" style="fill:rgb(68,68,68);fill-rule:nonzero;"/>
            <path d="M5108.54,1176.71L5160.41,1190.46C5166.66,1154.21 5154.16,1109.84 5119.79,1076.72C5092.29,1050.47 5059.8,1033.6 5026.68,1015.48C4997.93,999.854 4969.18,979.231 4959.81,946.734C4951.68,919.862 4958.56,882.99 4983.55,869.242C5022.93,848.619 5124.79,874.866 5131.66,979.231L5139.79,979.231L5147.91,881.116C5147.91,881.116 5051.67,834.87 4969.81,864.242C4936.68,876.116 4907.94,907.988 4906.69,942.36C4905.44,987.98 4933.56,1031.73 4974.18,1054.22C5016.68,1078.6 5069.17,1102.97 5096.67,1144.21C5102.92,1153.59 5106.67,1164.84 5108.54,1176.71ZM5037.92,1134.21C5010.43,1107.34 4977.93,1090.47 4944.81,1072.35C4919.81,1058.6 4894.81,1041.1 4882.94,1015.48C4863.57,1011.1 4844.19,1006.1 4824.82,1000.48C4824.19,1045.47 4852.32,1088.6 4892.31,1111.72C4935.43,1135.46 4987.3,1160.46 5014.8,1201.08C5039.8,1238.58 5026.05,1302.95 4982.93,1317.32C4941.68,1331.07 4849.82,1300.45 4845.44,1203.58L4837.94,1203.58L4829.19,1301.7C4829.19,1301.7 4954.81,1358.57 5042.3,1306.7C5090.42,1277.95 5096.67,1189.84 5037.92,1134.21Z" style="fill:rgb(68,68,68);fill-rule:nonzero;"/>
        </g>
        <g transform="matrix(0.11488,-0.165001,0.342289,0.190702,-320.37,218.341)">
            <path d="M1033.32,1268.58L1033.32,912.363L966.217,859.583C973.717,870.832 969.578,885.49 969.578,902.364L969.578,1268.58C969.578,1307.32 947.08,1313.57 922.707,1313.57L922.707,1321.7L1080.82,1321.7L1080.82,1313.57C1056.44,1313.57 1033.32,1307.32 1033.32,1268.58Z" style="fill:rgb(68,68,68);fill-rule:nonzero;"/>
        </g>
        <g transform="matrix(0.108955,-0.156492,0.286177,0.15944,-560.133,244.688)">
            <path d="M1033.32,1268.58L1033.32,912.363L965.413,851.165C972.913,862.414 969.578,885.49 969.578,902.364L969.578,1268.58C974.257,1300.55 943.185,1314.52 912.346,1322.57L936.309,1337.36L1080.82,1321.7L1080.82,1313.57C1056.44,1313.57 1033.32,1307.32 1033.32,1268.58Z" style="fill:rgb(68,68,68);fill-rule:nonzero;"/>
        </g>
        <g transform="matrix(-0.167187,0.235926,-0.609359,-0.345544,1110.34,445.881)">
            <path d="M1002.64,1270.39L1001.72,897.636L960.204,864.867C967.703,876.116 969.578,885.49 969.578,902.364L969.578,1268.58C969.578,1307.32 947.08,1313.57 922.707,1313.57L922.707,1321.7L1056.01,1326.62L1051.18,1310.94C1026.8,1310.94 1002.64,1309.14 1002.64,1270.39Z" style="fill:rgb(68,68,68);fill-rule:nonzero;"/>
        </g>
    </g>
</svg>
