<?xml version="1.0" encoding="UTF-8" standalone="no"?>
<!DOCTYPE svg PUBLIC "-//W3C//DTD SVG 1.1//EN" "http://www.w3.org/Graphics/SVG/1.1/DTD/svg11.dtd">
<svg width="100%" height="100%" viewBox="0 0 515 279" version="1.1" xmlns="http://www.w3.org/2000/svg" xmlns:xlink="http://www.w3.org/1999/xlink" xml:space="preserve" xmlns:serif="http://www.serif.com/" style="fill-rule:evenodd;clip-rule:evenodd;stroke-linejoin:round;stroke-miterlimit:2;">
    <g id="Layer_1">
        <path d="M46.54,275.77C44.49,273.27 44.83,269.86 45.22,265.94C45.35,264.59 45.49,263.2 45.52,261.84C45.86,244.76 45.23,225.11 44.62,206.1C44.37,198.18 44.13,190.71 43.96,183.59L43.91,181.64L41.96,181.64C31.35,181.63 25.88,173.82 21.48,167.53L19.27,164.37L17.96,167.99C16.94,170.8 17,174.56 17.06,178.53C17.12,182.83 17.19,187.68 15.56,189.35C15.14,189.78 14.57,189.99 13.77,189.99C13.04,189.99 12.17,189.83 11.17,189.51C9.4,186.3 9.89,181.96 10.41,177.38C10.67,175.06 10.95,172.65 10.92,170.32C10.76,157.52 8.29,143.63 6.3,132.48C5.7,129.1 5.13,125.93 4.69,123.13C5.52,122.9 6.3,122.79 7.02,122.78C13.8,122.78 16.89,133.21 20.16,144.25C24.04,157.37 28.06,170.94 39.43,172.17L41.6,172.4L41.64,170.21C41.86,158.18 41.57,145.33 41.26,131.72C40.52,99.02 39.76,65.23 45.88,37.24C47.87,28.15 55.5,8.21 66.99,3.96C70.04,2.96 75.23,1.06 64.46,10.57C63.15,11.73 62.58,13.22 61.44,14.53C56.1,20.71 52.78,33.37 51.89,37.11C44.6,67.69 46.22,108.69 47.52,141.63L47.53,141.89C47.81,148.98 48.07,155.68 48.23,161.9L48.32,165.33L51.26,163.56C62.92,156.55 72.71,138.21 78.81,111.94C83,93.91 83.26,39.12 78.59,15.12C85.26,33.12 86.74,91.76 86.13,99.81C83.51,134.63 69.89,162.79 49.71,175.13L48.65,175.78L48.8,177C50.15,192.3 50.74,209.62 51.36,227.96C51.61,235.33 51.89,243.69 52.24,251.9L52.33,254.01L54.44,253.81C55.13,253.81 56.24,254.33 57.43,255.8C58.93,257.65 59.59,259.83 59.37,260.86C59.1,261.83 58.84,262.88 58.59,263.9C56.68,271.53 55.63,275.74 47.22,275.78L47.14,275.78C47.14,275.77 46.74,275.77 46.54,275.77Z" style="stroke:black;stroke-width:3.5px;"/>
        <path d="M136.98,206.36C128.21,205.26 126.82,197.74 125.34,189.79C125.07,188.33 124.79,186.82 124.46,185.37L124.38,185.01L124.09,184.79C122.57,183.65 120.92,183.08 119.05,183.06C117.2,183.03 115.4,183.54 113.66,184.02C112.02,184.48 110.47,184.91 108.97,184.89C107.45,184.87 106.16,184.36 104.95,183.29C105.05,182.53 104.98,181.72 104.91,180.87C104.77,179.22 104.64,177.66 105.64,176.47C106.95,175.6 108.57,175.19 110.56,175.21C112.45,175.24 114.65,175.65 117.5,176.52L117.76,176.6L118.03,176.54C118.91,176.33 119.53,175.99 119.98,175.74C120.35,175.54 120.58,175.42 120.74,175.42C120.91,175.42 121.26,175.55 121.97,176.14L123.5,177.42L123.62,175.43C123.8,172.37 123.8,165.91 123.8,156.97C123.81,124.66 123.83,57.71 133.9,49.15C135.99,49.2 137.86,49.48 139.79,50.03C144.22,57.21 147.89,86.63 148.18,117.62C148.51,153.08 144.44,178.29 137.54,183.57C137.17,183.66 136.81,183.7 136.45,183.7C136,183.69 135.58,183.62 135.14,183.54C134.66,183.45 134.16,183.37 133.61,183.36C132.99,183.35 132.39,183.45 131.79,183.65L131.03,183.91L131.11,184.71C131.83,191.51 133.1,199.05 138.97,202.85C139.07,204.36 138.46,204.93 137.65,205.69C137.43,205.9 137.2,206.12 136.98,206.36ZM136.59,53.23C127.34,67.72 129.46,158.36 130.24,174.44L130.32,176.05L131.73,175.27C132.12,175.05 132.9,175.06 133.15,175.07C133.54,175.07 133.94,175.1 134.35,175.13C134.79,175.16 135.23,175.19 135.65,175.19C136.44,175.2 137.45,175.15 138.24,174.63L138.4,174.52L138.51,174.36C143.92,166.63 145.75,136.37 145.68,112.8C145.61,89.25 143.61,59.48 138.19,53.12L137.31,52.09L136.59,53.23Z" style="stroke:black;stroke-width:3.5px;"/>
        <path d="M399.34,186.79C396.44,186.79 394.53,185.59 393.5,183.12L392.73,181.27L390.88,182.05C389.21,182.76 387.36,183.13 385.55,183.13C382.1,183.13 379.01,181.73 378.03,179.74C377.41,178.46 377.63,176.96 378.68,175.26C379.95,175.5 381.24,175.61 382.61,175.61C385.79,175.61 388.68,174.99 391.48,174.38C393.81,173.88 396.02,173.4 398.03,173.4C400.81,173.4 402.85,174.28 404.86,176.35L406.36,177.9L407.79,176.28C408.88,175.04 410.48,174.42 412.55,174.42C415.25,174.42 418.76,175.52 421.93,177.36L422.98,177.97L424.01,177.31C429.72,173.67 437.59,171.67 446.17,171.67C452.87,171.67 463.09,174.09 473.67,178.33C483.67,182.33 510.77,185.67 512,186C509.83,185.69 486,186 464.75,177.5C460.44,175.78 451.75,174.25 442.75,175.75C432.7,177.43 430.64,177.29 422.67,185.33C422.39,185.2 418.54,184.5 418.54,184.5C416.77,183.67 414.95,182.82 413.01,182.06L411.96,181.65L411.07,182.33C408.25,184.48 403.39,186.79 399.34,186.79Z" style="stroke:black;stroke-width:3.5px;"/>
        <path d="M222.96,205.55C217.64,205.55 211.7,205.01 206.22,204.02L206.13,204C194.34,201.86 174.39,195.71 172.41,178.48C171.3,168.87 175.75,157.32 185.64,144.15L185.75,144L185.78,143.95C189.42,137.74 210.38,111.95 246.32,99.24C252.47,97.07 289.68,78.99 314.28,78.47C316.09,78.43 317.75,78.61 319.24,78.87C324.43,79.81 327.76,82.45 329.13,86.72L329.18,86.89L329.19,87.1C329.35,90.79 328.05,94.69 325.33,98.72C311.58,119.06 260.87,140.57 241.42,140.57C240.2,140.57 239.1,140.48 238.17,140.32C236.56,140.03 235.36,139.49 234.58,138.72L234.51,138.65L234.43,138.6C234.13,138.35 233.76,137.28 234.72,135.22C236.06,132.35 243.37,129.56 248.19,129.38C249.12,129.35 250.01,129.31 250.82,129.23C251.08,129.2 251.31,129.19 251.54,129.19C253.37,129.19 254.09,129.99 254.92,130.91C255.7,131.78 256.68,132.87 258.56,132.87C259.34,132.87 260.22,132.69 261.25,132.31C261.98,132.04 262.81,131.76 263.76,131.43C266.72,130.41 270.77,129.02 277.03,126.42C297.93,117.76 327.59,97.94 324.18,89.36L324.02,89L323.37,88.07C321.79,86.58 320.45,85.94 318,85.5C315.86,85.11 312.92,84.64 310.5,85C293.5,87.5 276.78,93.52 262.23,99.44C259,100.75 256.02,101.97 253.19,103.06C224.79,114.02 197.93,126.94 181.42,164.27L181.39,164.33L181.37,164.39C179.52,170.83 179.41,177.19 181.05,182.31C183.53,190.03 190.08,192.39 200,195.95C210.42,199.69 222.9,201.59 237.09,201.59C248.4,201.59 256.94,200.32 258.02,200.15L268.41,200.78L253.29,203.64L244.29,204.86C237.97,205.09 231.62,205.32 225.27,205.53C224.52,205.54 223.75,205.55 222.96,205.55Z" style="fill-rule:nonzero;stroke:black;stroke-width:3.5px;"/>
        <path d="M368.25,272.32C366.2,269.82 366.54,266.41 366.93,262.49C367.06,261.13 367.2,259.75 367.23,258.39C367.57,241.3 366.94,221.64 366.33,202.62C366.26,200.4 366.32,193.53 366.38,186.89C366.43,181.37 366.48,176.12 366.45,173.5L372.2,173.5C372.5,179.85 372.61,191.13 372.72,202.06C372.81,210.92 372.89,219.28 373.07,224.52C373.36,233.06 373.63,240.76 373.95,248.46L374.04,250.57L376.14,250.37L376.24,250.37C376.83,250.37 377.94,250.89 379.14,252.36C380.64,254.21 381.3,256.39 381.08,257.42C380.81,258.39 380.55,259.44 380.3,260.46C378.39,268.09 377.34,272.3 368.93,272.34L368.86,272.34C368.85,272.33 368.45,272.32 368.25,272.32Z" style="stroke:black;stroke-width:3.5px;"/>
        <path d="M344,189.67C346.33,185 339.21,183.26 337.67,181.34L333.87,180.28L333.02,180.2C332.25,180.13 331.33,180.1 329.95,180.1C329.39,180.1 327.73,180.11 327.73,180.11C327.23,180.11 326.71,180.12 326.18,180.12C320.56,180.12 314.06,179.69 313.62,176.32L313.26,173.6L310.78,174.77C307.64,176.25 305.16,178.54 302.76,180.76C299.1,184.14 295.94,187.06 290.98,187.06C289.96,187.06 288.86,186.93 287.72,186.68L287.55,186.56C285.99,184.34 284.66,181.34 285.32,176.67L283.13,175.35C282.75,175.34 282.37,175.34 281.99,175.34C274.92,175.34 267.9,178.82 261.23,180.21C254.72,181.57 250.67,182.01 243.99,182.01C238.38,182.01 233.57,179.03 228.66,177.01L228.28,176.85L227.87,176.86C224.76,176.91 219.31,181.23 217.1,182.43C215.23,183.45 213.46,184.41 211.61,184.41C210.94,184.41 210.28,184.29 209.59,184.05C208.74,183.75 207.7,183.12 207.54,181.79C207.38,180.46 208.19,179 209.61,178.07C209.62,178.07 209.87,177.93 210.82,177.93C211.31,177.93 211.82,177.96 212.33,177.99C212.92,178.02 213.51,178.06 214.06,178.06C214.92,178.06 215.59,177.98 216.19,177.82C219.28,176.98 221.41,175.28 223.13,173.91C224.2,173.06 225.14,172.31 225.97,172.05C229.43,173.53 232.92,173.9 236.29,174.26C239.72,174.63 242.96,174.97 245.66,176.5L247.31,177.43L248.33,175.84C250.26,172.84 253.55,171.32 258.12,171.32C262.56,171.32 266.88,172.74 269.05,173.58L269.98,173.94L270.83,173.42C272.56,172.35 274.7,171.66 276.96,170.92C279.11,170.22 281.32,169.49 283.29,168.4C287.03,171.28 290.44,171.92 292.7,171.93C292.32,173.18 291.89,174.72 292.18,176.93L292.47,179.16L294.65,178.61C299.95,177.29 303.31,174.03 306.55,170.89C309.2,168.31 311.72,165.88 315.2,164.61C316.02,165.21 316.45,166.41 316.98,167.89C317.63,169.68 318.36,171.72 320.16,173.04L320.91,173.59L321.81,173.38C323.64,172.94 325.68,172.72 327.87,172.72C337.66,172.72 347.79,176.98 350.95,182.42L351.73,183.76L353.22,183.34C356.71,182.36 358.94,180.05 360.92,178.02C363.31,175.55 365.38,173.42 369.46,173.42C370.23,173.42 371.06,173.5 371.95,173.65C372.07,174.61 371.97,175.14 371.8,176.1C371.7,176.67 371.58,177.35 371.47,178.25C371.28,178.5 371.08,178.81 370.82,179.2C368.43,182.81 366.97,190.69 348.63,193.69C348.67,193.67 341.67,194.33 344,189.67Z" style="stroke:black;stroke-width:3.5px;"/>
        <path d="M290.45,174.25C288.48,173.86 286.29,173.39 283.95,172.84C283.61,171.49 283.27,170.07 282.95,168.72L282.99,168.73L283.03,167.38C283.1,164.96 283.06,162.43 283.02,159.75C282.87,149.52 282.71,138.01 288.73,131.35C289.52,131.33 290.26,130.07 291.01,130C291.81,129.92 291.82,129.9 292.72,129.9C293.27,129.9 293.81,129.93 294.35,130C301.99,134.6 303.72,154.85 301.02,166C299.84,170.87 296.17,174.07 291.68,174.16L290.45,174.18L290.45,174.25ZM293.14,135.25C287.15,140.76 287.75,154.47 288.94,165.79L289,166.4L289.58,166.62C289.93,166.75 290.35,166.97 290.84,167.22C291.86,167.74 292.75,168.18 293.46,168.27L294.09,168.35L294.43,167.82C299.5,159.96 301.59,141.86 294.51,135.25L293.83,134.62L293.14,135.25Z" style="stroke:black;stroke-width:3.5px;"/>
        <path d="M89.73,182.36C95.18,182.43 99.82,178.67 101.54,172.77C105.62,158.78 105.62,133.58 96.41,127.13C94.06,123.57 89.59,127.11 88.67,127.11C80.79,135.39 80.33,149.71 79.9,163.57C79.77,167.84 79.64,171.88 79.29,175.68L79.16,177.08L77.88,176.5C77.15,176.17 76.51,176.01 75.91,176C74.93,175.99 74.11,176.4 73.17,176.88C72.23,177.36 71.16,177.91 69.76,178.09L68.84,178.21L68.65,177.3C67.98,174 66.7,172.32 64.87,172.3C62.39,172.27 59.3,175.09 57.66,177.77L56.47,179.71L56.43,179.58C56.6,180.81 53.25,183.29 53.21,185.03C53.3,185.08 53.4,185.13 53.49,185.18C54.55,184.91 58.86,183.34 59.75,182.74C60.75,182.07 61.77,181.37 63.16,181.02L63.74,180.87L64.14,181.31C65.43,182.73 67.04,183.36 69.53,183.39C70.55,183.4 71.65,183.32 72.7,183.23C73.8,183.14 77.15,181.67 78.26,181.69C80.49,181.72 81.65,184.75 81.65,184.75L82.21,186.71C84.64,195.33 86.94,203.48 97.23,204.76C99.53,203.15 100.37,200.32 99.5,197.23C99.35,197.2 99.2,197.19 99.06,197.19C98.44,197.18 98.06,197.42 97.52,197.76C96.89,198.15 96.1,198.64 94.9,198.63C94.67,198.63 94.42,198.61 94.15,198.56L93.78,198.5L93.54,198.22C90.02,193.99 87.84,189.14 86.88,183.4L86.65,182.05L88.01,182.25C88.6,182.3 89.17,182.35 89.73,182.36ZM86.47,173.96L85.54,173.96L85.48,173.01C84.79,161.46 83.36,137.44 94.28,130L94.91,129.57L95.49,130.06C106.02,138.94 102.26,165.3 94.03,176.17L93.84,176.42L93.54,176.52C93.28,176.6 93,176.64 92.71,176.64C91.37,176.62 89.78,175.71 88.37,174.9C87.74,174.55 86.78,174 86.47,173.96Z" style="fill-rule:nonzero;stroke:black;stroke-width:3.5px;"/>
    </g>
</svg>
