<?xml version="1.0" encoding="utf-8"?>
<!-- Generator: Adobe Illustrator 23.0.2, SVG Export Plug-In . SVG Version: 6.00 Build 0)  -->
<svg version="1.1" xmlns="http://www.w3.org/2000/svg" xmlns:xlink="http://www.w3.org/1999/xlink" x="0px" y="0px"
	 viewBox="0 0 515 279" style="enable-background:new 0 0 515 279;" xml:space="preserve">
<style type="text/css">
	.Arched_x0020_Green{fill:url(#SVGID_1_);stroke:#FFFFFF;stroke-width:0.25;stroke-miterlimit:1;}
	.st0{display:none;}
	.st1{display:inline;fill:#58595B;}
	.st2{fill-rule:evenodd;clip-rule:evenodd;}
</style>
<linearGradient id="SVGID_1_" gradientUnits="userSpaceOnUse" x1="-46" y1="634.8896" x2="-45.2929" y2="634.1825">
	<stop  offset="0" style="stop-color:#20AC4B"/>
	<stop  offset="0.9831" style="stop-color:#19361A"/>
</linearGradient>
<g id="Layer_2" class="st0">
	<rect x="-89" y="-27" class="st1" width="664" height="341"/>
</g>
<g id="Layer_1">
	<path class="st2" d="M46.54,275.77c-2.05-2.5-1.71-5.91-1.32-9.83c0.13-1.35,0.27-2.74,0.3-4.1c0.34-17.08-0.29-36.73-0.9-55.74
		c-0.25-7.92-0.49-15.39-0.66-22.51l-0.05-1.95l-1.95,0c-10.61-0.01-16.08-7.82-20.48-14.11l-2.21-3.16l-1.31,3.62
		c-1.02,2.81-0.96,6.57-0.9,10.54c0.06,4.3,0.13,9.15-1.5,10.82c-0.42,0.43-0.99,0.64-1.79,0.64c-0.73,0-1.6-0.16-2.6-0.48
		c-1.77-3.21-1.28-7.55-0.76-12.13c0.26-2.32,0.54-4.73,0.51-7.06c-0.16-12.8-2.63-26.69-4.62-37.84c-0.6-3.38-1.17-6.55-1.61-9.35
		c0.83-0.23,1.61-0.34,2.33-0.35c6.78,0,9.87,10.43,13.14,21.47c3.88,13.12,7.9,26.69,19.27,27.92l2.17,0.23l0.04-2.19
		c0.22-12.03-0.07-24.88-0.38-38.49c-0.74-32.7-1.5-66.49,4.62-94.48c1.99-9.09,9.62-29.03,21.11-33.28c3.05-1,8.24-2.9-2.53,6.61
		c-1.31,1.16-1.88,2.65-3.02,3.96c-5.34,6.18-8.66,18.84-9.55,22.58c-7.29,30.58-5.67,71.58-4.37,104.52l0.01,0.26
		c0.28,7.09,0.54,13.79,0.7,20.01l0.09,3.43l2.94-1.77c11.66-7.01,21.45-25.35,27.55-51.62c4.19-18.03,4.45-72.82-0.22-96.82
		c6.67,18,8.15,76.64,7.54,84.69c-2.62,34.82-16.24,62.98-36.42,75.32l-1.06,0.65L48.8,177c1.35,15.3,1.94,32.62,2.56,50.96
		c0.25,7.37,0.53,15.73,0.88,23.94l0.09,2.11c0,0,2.11-0.2,2.11-0.2c0.69,0,1.8,0.52,2.99,1.99c1.5,1.85,2.16,4.03,1.94,5.06
		c-0.27,0.97-0.53,2.02-0.78,3.04c-1.91,7.63-2.96,11.84-11.37,11.88h-0.08C47.14,275.77,46.74,275.77,46.54,275.77z"/>
	<path class="st2" d="M136.98,206.36c-8.77-1.1-10.16-8.62-11.64-16.57c-0.27-1.46-0.55-2.97-0.88-4.42l-0.08-0.36l-0.29-0.22
		c-1.52-1.14-3.17-1.71-5.04-1.73c-1.85-0.03-3.65,0.48-5.39,0.96c-1.64,0.46-3.19,0.89-4.69,0.87c-1.52-0.02-2.81-0.53-4.02-1.6
		c0.1-0.76,0.03-1.57-0.04-2.42c-0.14-1.65-0.27-3.21,0.73-4.4c1.31-0.87,2.93-1.28,4.92-1.26c1.89,0.03,4.09,0.44,6.94,1.31
		l0.26,0.08l0.27-0.06c0.88-0.21,1.5-0.55,1.95-0.8c0.37-0.2,0.6-0.32,0.76-0.32c0.17,0,0.52,0.13,1.23,0.72l1.53,1.28l0.12-1.99
		c0.18-3.06,0.18-9.52,0.18-18.46c0.01-32.31,0.03-99.26,10.1-107.82c2.09,0.05,3.96,0.33,5.89,0.88c4.43,7.18,8.1,36.6,8.39,67.59
		c0.33,35.46-3.74,60.67-10.64,65.95c-0.37,0.09-0.73,0.13-1.09,0.13c-0.45-0.01-0.87-0.08-1.31-0.16
		c-0.48-0.09-0.98-0.17-1.53-0.18c-0.62-0.01-1.22,0.09-1.82,0.29l-0.76,0.26l0.08,0.8c0.72,6.8,1.99,14.34,7.86,18.14
		c0.1,1.51-0.51,2.08-1.32,2.84C137.43,205.9,137.2,206.12,136.98,206.36L136.98,206.36z M136.59,53.23
		c-9.25,14.49-7.13,105.13-6.35,121.21l0.08,1.61l1.41-0.78c0.39-0.22,1.17-0.21,1.42-0.2c0.39,0,0.79,0.03,1.2,0.06
		c0.44,0.03,0.88,0.06,1.3,0.06c0.79,0.01,1.8-0.04,2.59-0.56l0.16-0.11l0.11-0.16c5.41-7.73,7.24-37.99,7.17-61.56
		c-0.07-23.55-2.07-53.32-7.49-59.68l-0.88-1.03L136.59,53.23z"/>
	<path class="st2" d="M399.34,186.79c-2.9,0-4.81-1.2-5.84-3.67l-0.77-1.85l-1.85,0.78c-1.67,0.71-3.52,1.08-5.33,1.08
		c-3.45,0-6.54-1.4-7.52-3.39c-0.62-1.28-0.4-2.78,0.65-4.48c1.27,0.24,2.56,0.35,3.93,0.35c3.18,0,6.07-0.62,8.87-1.23
		c2.33-0.5,4.54-0.98,6.55-0.98c2.78,0,4.82,0.88,6.83,2.95l1.5,1.55l1.43-1.62c1.09-1.24,2.69-1.86,4.76-1.86
		c2.7,0,6.21,1.1,9.38,2.94l1.05,0.61l1.03-0.66c5.71-3.64,13.58-5.64,22.16-5.64c6.7,0,16.92,2.42,27.5,6.66
		c10,4,37.1,7.34,38.33,7.67c-2.17-0.31-26,0-47.25-8.5c-4.31-1.72-13-3.25-22-1.75c-10.05,1.68-12.11,1.54-20.08,9.58
		c-0.28-0.13-4.13-0.83-4.13-0.83c-1.77-0.83-3.59-1.68-5.53-2.44l-1.05-0.41l-0.89,0.68C408.25,184.48,403.39,186.79,399.34,186.79
		L399.34,186.79z"/>
	<path d="M222.96,205.55c-5.32,0-11.26-0.54-16.74-1.53l-0.09-0.02c-11.79-2.14-31.74-8.29-33.72-25.52
		c-1.11-9.61,3.34-21.16,13.23-34.33l0.11-0.15l0.03-0.05c3.64-6.21,24.6-32,60.54-44.71c6.15-2.17,43.36-20.25,67.96-20.77
		c1.81-0.04,3.47,0.14,4.96,0.4c5.19,0.94,8.52,3.58,9.89,7.85l0.05,0.17l0.01,0.21c0.16,3.69-1.14,7.59-3.86,11.62
		c-13.75,20.34-64.46,41.85-83.91,41.85c-1.22,0-2.32-0.09-3.25-0.25c-1.61-0.29-2.81-0.83-3.59-1.6l-0.07-0.07l-0.08-0.05
		c-0.3-0.25-0.67-1.32,0.29-3.38c1.34-2.87,8.65-5.66,13.47-5.84c0.93-0.03,1.82-0.07,2.63-0.15c0.26-0.03,0.49-0.04,0.72-0.04
		c1.83,0,2.55,0.8,3.38,1.72c0.78,0.87,1.76,1.96,3.64,1.96c0.78,0,1.66-0.18,2.69-0.56c0.73-0.27,1.56-0.55,2.51-0.88
		c2.96-1.02,7.01-2.41,13.27-5.01c20.9-8.66,50.56-28.48,47.15-37.06L324.02,89l-0.65-0.93c-1.58-1.49-2.92-2.13-5.37-2.57
		c-2.14-0.39-5.08-0.86-7.5-0.5c-17,2.5-33.72,8.52-48.27,14.44c-3.23,1.31-6.21,2.53-9.04,3.62
		c-28.4,10.96-55.26,23.88-71.77,61.21l-0.03,0.06l-0.02,0.06c-1.85,6.44-1.96,12.8-0.32,17.92c2.48,7.72,9.03,10.08,18.95,13.64
		c10.42,3.74,22.9,5.64,37.09,5.64c11.31,0,19.85-1.27,20.93-1.44l10.39,0.63l-15.12,2.86l-9,1.22c-6.32,0.23-12.67,0.46-19.02,0.67
		C224.52,205.54,223.75,205.55,222.96,205.55L222.96,205.55z"/>
	<path class="st2" d="M368.25,272.32c-2.05-2.5-1.71-5.91-1.32-9.83c0.13-1.36,0.27-2.74,0.3-4.1c0.34-17.09-0.29-36.75-0.9-55.77
		c-0.07-2.22-0.01-9.09,0.05-15.73c0.05-5.52,0.1-10.77,0.07-13.39h5.75c0.3,6.35,0.41,17.63,0.52,28.56
		c0.09,8.86,0.17,17.22,0.35,22.46c0.29,8.54,0.56,16.24,0.88,23.94l0.09,2.11l2.1-0.2l0.1,0c0.59,0,1.7,0.52,2.9,1.99
		c1.5,1.85,2.16,4.03,1.94,5.06c-0.27,0.97-0.53,2.02-0.78,3.04c-1.91,7.63-2.96,11.84-11.37,11.88h-0.07
		C368.85,272.33,368.45,272.32,368.25,272.32z"/>
	<path class="st2" d="M344,189.67c2.33-4.67-4.79-6.41-6.33-8.33l-3.8-1.06l-0.85-0.08c-0.77-0.07-1.69-0.1-3.07-0.1
		c-0.56,0-2.22,0.01-2.22,0.01c-0.5,0-1.02,0.01-1.55,0.01c-5.62,0-12.12-0.43-12.56-3.8l-0.36-2.72l-2.48,1.17
		c-3.14,1.48-5.62,3.77-8.02,5.99c-3.66,3.38-6.82,6.3-11.78,6.3c-1.02,0-2.12-0.13-3.26-0.38l-0.17-0.12
		c-1.56-2.22-2.89-5.22-2.23-9.89l-2.19-1.32c-0.38-0.01-0.76-0.01-1.14-0.01c-7.07,0-14.09,3.48-20.76,4.87
		c-6.51,1.36-10.56,1.8-17.24,1.8c-5.61,0-10.42-2.98-15.33-5l-0.38-0.16l-0.41,0.01c-3.11,0.05-8.56,4.37-10.77,5.57
		c-1.87,1.02-3.64,1.98-5.49,1.98c-0.67,0-1.33-0.12-2.02-0.36c-0.85-0.3-1.89-0.93-2.05-2.26c-0.16-1.33,0.65-2.79,2.07-3.72
		c0.01,0,0.26-0.14,1.21-0.14c0.49,0,1,0.03,1.51,0.06c0.59,0.03,1.18,0.07,1.73,0.07c0.86,0,1.53-0.08,2.13-0.24
		c3.09-0.84,5.22-2.54,6.94-3.91c1.07-0.85,2.01-1.6,2.84-1.86c3.46,1.48,6.95,1.85,10.32,2.21c3.43,0.37,6.67,0.71,9.37,2.24
		l1.65,0.93l1.02-1.59c1.93-3,5.22-4.52,9.79-4.52c4.44,0,8.76,1.42,10.93,2.26l0.93,0.36l0.85-0.52c1.73-1.07,3.87-1.76,6.13-2.5
		c2.15-0.7,4.36-1.43,6.33-2.52c3.74,2.88,7.15,3.52,9.41,3.53c-0.38,1.25-0.81,2.79-0.52,5l0.29,2.23l2.18-0.55
		c5.3-1.32,8.66-4.58,11.9-7.72c2.65-2.58,5.17-5.01,8.65-6.28c0.82,0.6,1.25,1.8,1.78,3.28c0.65,1.79,1.38,3.83,3.18,5.15
		l0.75,0.55l0.9-0.21c1.83-0.44,3.87-0.66,6.06-0.66c9.79,0,19.92,4.26,23.08,9.7l0.78,1.34l1.49-0.42c3.49-0.98,5.72-3.29,7.7-5.32
		c2.39-2.47,4.46-4.6,8.54-4.6c0.77,0,1.6,0.08,2.49,0.23c0.12,0.96,0.02,1.49-0.15,2.45c-0.1,0.57-0.22,1.25-0.33,2.15
		c-0.19,0.25-0.39,0.56-0.65,0.95c-2.39,3.61-3.85,11.49-22.19,14.49C348.67,193.67,341.67,194.33,344,189.67z"/>
	<path class="st2" d="M290.45,174.25c-1.97-0.39-4.16-0.86-6.5-1.41l0,0c-0.34-1.35-0.68-2.77-1-4.12l0.04,0.01l0.04-1.35
		c0.07-2.42,0.03-4.95-0.01-7.63c-0.15-10.23-0.31-21.74,5.71-28.4h0c0.79-0.02,1.53-1.28,2.28-1.35c0.8-0.08,0.81-0.1,1.71-0.1
		c0.55,0,1.09,0.03,1.63,0.1l0,0c7.64,4.6,9.37,24.85,6.67,36c-1.18,4.87-4.85,8.07-9.34,8.16l-1.23,0.02L290.45,174.25
		L290.45,174.25z M293.14,135.25c-5.99,5.51-5.39,19.22-4.2,30.54l0.06,0.61l0.58,0.22c0.35,0.13,0.77,0.35,1.26,0.6
		c1.02,0.52,1.91,0.96,2.62,1.05l0.63,0.08l0.34-0.53c5.07-7.86,7.16-25.96,0.08-32.57l-0.68-0.63L293.14,135.25z"/>
	<path d="M89.73,182.36c5.45,0.07,10.09-3.69,11.81-9.59c4.08-13.99,4.08-39.19-5.13-45.64c-2.35-3.56-6.82-0.02-7.74-0.02
		c-7.88,8.28-8.34,22.6-8.77,36.46c-0.13,4.27-0.26,8.31-0.61,12.11l-0.13,1.4l-1.28-0.58c-0.73-0.33-1.37-0.49-1.97-0.5
		c-0.98-0.01-1.8,0.4-2.74,0.88c-0.94,0.48-2.01,1.03-3.41,1.21l-0.92,0.12l-0.19-0.91c-0.67-3.3-1.95-4.98-3.78-5
		c-2.48-0.03-5.57,2.79-7.21,5.47l-1.19,1.94l-0.04-0.13c0.17,1.23-3.18,3.71-3.22,5.45c0.09,0.05,0.19,0.1,0.28,0.15
		c1.06-0.27,5.37-1.84,6.26-2.44c1-0.67,2.02-1.37,3.41-1.72l0.58-0.15l0.4,0.44c1.29,1.42,2.9,2.05,5.39,2.08
		c1.02,0.01,2.12-0.07,3.17-0.16c1.1-0.09,4.45-1.56,5.56-1.54c2.23,0.03,3.39,3.06,3.39,3.06l0.56,1.96
		c2.43,8.62,4.73,16.77,15.02,18.05c2.3-1.61,3.14-4.44,2.27-7.53c-0.15-0.03-0.3-0.04-0.44-0.04c-0.62-0.01-1,0.23-1.54,0.57
		c-0.63,0.39-1.42,0.88-2.62,0.87c-0.23,0-0.48-0.02-0.75-0.07l-0.37-0.06l-0.24-0.28c-3.52-4.23-5.7-9.08-6.66-14.82l-0.23-1.35
		l1.36,0.2C88.6,182.3,89.17,182.35,89.73,182.36z M86.47,173.96l-0.93,0l-0.06-0.95c-0.69-11.55-2.12-35.57,8.8-43.01l0.63-0.43
		l0.58,0.49c10.53,8.88,6.77,35.24-1.46,46.11l-0.19,0.25l-0.3,0.1c-0.26,0.08-0.54,0.12-0.83,0.12c-1.34-0.02-2.93-0.93-4.34-1.74
		C87.74,174.55,86.78,174,86.47,173.96z"/>
</g>
</svg>
